<?xml version="1.0" encoding="utf-8" standalone="no"?>
<!DOCTYPE svg PUBLIC "-//W3C//DTD SVG 1.1//EN"
  "http://www.w3.org/Graphics/SVG/1.1/DTD/svg11.dtd">
<svg xmlns:xlink="http://www.w3.org/1999/xlink" width="458.424531pt" height="212.895pt" viewBox="0 0 458.424531 212.895" xmlns="http://www.w3.org/2000/svg" version="1.1">
 <metadata>
  <rdf:RDF xmlns:dc="http://purl.org/dc/elements/1.1/" xmlns:cc="http://creativecommons.org/ns#" xmlns:rdf="http://www.w3.org/1999/02/22-rdf-syntax-ns#">
   <cc:Work>
    <dc:type rdf:resource="http://purl.org/dc/dcmitype/StillImage"/>
    <dc:date>2023-07-21T16:40:59.702076</dc:date>
    <dc:format>image/svg+xml</dc:format>
    <dc:creator>
     <cc:Agent>
      <dc:title>Matplotlib v3.5.1, https://matplotlib.org/</dc:title>
     </cc:Agent>
    </dc:creator>
   </cc:Work>
  </rdf:RDF>
 </metadata>
 <defs>
  <style type="text/css">*{stroke-linejoin: round; stroke-linecap: butt}</style>
 </defs>
 <g id="figure_1">
  <g id="patch_1">
   <path d="M 0 212.895 
L 458.424531 212.895 
L 458.424531 0 
L 0 0 
L 0 212.895 
z
" style="fill: none"/>
  </g>
  <g id="axes_1">
   <g id="patch_2">
    <path d="M 54.136094 170.28 
L 333.136094 170.28 
L 333.136094 7.2 
L 54.136094 7.2 
z
" style="fill: #ffffff"/>
   </g>
   <g id="matplotlib.axis_1">
    <g id="xtick_1">
     <g id="line2d_1">
      <defs>
       <path id="mda18b61925" d="M 0 0 
L 0 -3.5 
" style="stroke: #000000; stroke-width: 0.8"/>
      </defs>
      <g>
       <use xlink:href="#mda18b61925" x="54.136094" y="170.28" style="stroke: #000000; stroke-width: 0.8"/>
      </g>
     </g>
     <g id="line2d_2">
      <defs>
       <path id="m5215e6003a" d="M 0 0 
L 0 3.5 
" style="stroke: #000000; stroke-width: 0.8"/>
      </defs>
      <g>
       <use xlink:href="#m5215e6003a" x="54.136094" y="7.2" style="stroke: #000000; stroke-width: 0.8"/>
      </g>
     </g>
     <g id="text_1">
      <!-- 0 -->
      <g transform="translate(51.077578 181.653594)scale(0.11 -0.11)">
       <defs>
        <path id="Arial-BoldMT-30" d="M 1756 4600 
Q 2422 4600 2797 4125 
Q 3244 3563 3244 2259 
Q 3244 959 2794 391 
Q 2422 -78 1756 -78 
Q 1088 -78 678 436 
Q 269 950 269 2269 
Q 269 3563 719 4131 
Q 1091 4600 1756 4600 
z
M 1756 3872 
Q 1597 3872 1472 3770 
Q 1347 3669 1278 3406 
Q 1188 3066 1188 2259 
Q 1188 1453 1269 1151 
Q 1350 850 1473 750 
Q 1597 650 1756 650 
Q 1916 650 2041 751 
Q 2166 853 2234 1116 
Q 2325 1453 2325 2259 
Q 2325 3066 2244 3367 
Q 2163 3669 2039 3770 
Q 1916 3872 1756 3872 
z
" transform="scale(0.015625)"/>
       </defs>
       <use xlink:href="#Arial-BoldMT-30"/>
      </g>
     </g>
    </g>
    <g id="xtick_2">
     <g id="line2d_3">
      <g>
       <use xlink:href="#mda18b61925" x="85.69718" y="170.28" style="stroke: #000000; stroke-width: 0.8"/>
      </g>
     </g>
     <g id="line2d_4">
      <g>
       <use xlink:href="#m5215e6003a" x="85.69718" y="7.2" style="stroke: #000000; stroke-width: 0.8"/>
      </g>
     </g>
     <g id="text_2">
      <!-- 50 -->
      <g transform="translate(79.580148 181.653594)scale(0.11 -0.11)">
       <defs>
        <path id="Arial-BoldMT-35" d="M 284 1178 
L 1159 1269 
Q 1197 972 1381 798 
Q 1566 625 1806 625 
Q 2081 625 2272 848 
Q 2463 1072 2463 1522 
Q 2463 1944 2273 2155 
Q 2084 2366 1781 2366 
Q 1403 2366 1103 2031 
L 391 2134 
L 841 4519 
L 3163 4519 
L 3163 3697 
L 1506 3697 
L 1369 2919 
Q 1663 3066 1969 3066 
Q 2553 3066 2959 2641 
Q 3366 2216 3366 1538 
Q 3366 972 3038 528 
Q 2591 -78 1797 -78 
Q 1163 -78 763 262 
Q 363 603 284 1178 
z
" transform="scale(0.015625)"/>
       </defs>
       <use xlink:href="#Arial-BoldMT-35"/>
       <use xlink:href="#Arial-BoldMT-30" x="55.615234"/>
      </g>
     </g>
    </g>
    <g id="xtick_3">
     <g id="line2d_5">
      <g>
       <use xlink:href="#mda18b61925" x="117.258266" y="170.28" style="stroke: #000000; stroke-width: 0.8"/>
      </g>
     </g>
     <g id="line2d_6">
      <g>
       <use xlink:href="#m5215e6003a" x="117.258266" y="7.2" style="stroke: #000000; stroke-width: 0.8"/>
      </g>
     </g>
     <g id="text_3">
      <!-- 100 -->
      <g transform="translate(108.082719 181.653594)scale(0.11 -0.11)">
       <defs>
        <path id="Arial-BoldMT-31" d="M 2519 0 
L 1641 0 
L 1641 3309 
Q 1159 2859 506 2644 
L 506 3441 
Q 850 3553 1253 3867 
Q 1656 4181 1806 4600 
L 2519 4600 
L 2519 0 
z
" transform="scale(0.015625)"/>
       </defs>
       <use xlink:href="#Arial-BoldMT-31"/>
       <use xlink:href="#Arial-BoldMT-30" x="55.615234"/>
       <use xlink:href="#Arial-BoldMT-30" x="111.230469"/>
      </g>
     </g>
    </g>
    <g id="xtick_4">
     <g id="line2d_7">
      <g>
       <use xlink:href="#mda18b61925" x="148.819352" y="170.28" style="stroke: #000000; stroke-width: 0.8"/>
      </g>
     </g>
     <g id="line2d_8">
      <g>
       <use xlink:href="#m5215e6003a" x="148.819352" y="7.2" style="stroke: #000000; stroke-width: 0.8"/>
      </g>
     </g>
     <g id="text_4">
      <!-- 150 -->
      <g transform="translate(139.643805 181.653594)scale(0.11 -0.11)">
       <use xlink:href="#Arial-BoldMT-31"/>
       <use xlink:href="#Arial-BoldMT-35" x="55.615234"/>
       <use xlink:href="#Arial-BoldMT-30" x="111.230469"/>
      </g>
     </g>
    </g>
    <g id="xtick_5">
     <g id="line2d_9">
      <g>
       <use xlink:href="#mda18b61925" x="180.380438" y="170.28" style="stroke: #000000; stroke-width: 0.8"/>
      </g>
     </g>
     <g id="line2d_10">
      <g>
       <use xlink:href="#m5215e6003a" x="180.380438" y="7.2" style="stroke: #000000; stroke-width: 0.8"/>
      </g>
     </g>
     <g id="text_5">
      <!-- 200 -->
      <g transform="translate(171.204891 181.653594)scale(0.11 -0.11)">
       <defs>
        <path id="Arial-BoldMT-32" d="M 3238 816 
L 3238 0 
L 159 0 
Q 209 463 459 877 
Q 709 1291 1447 1975 
Q 2041 2528 2175 2725 
Q 2356 2997 2356 3263 
Q 2356 3556 2198 3714 
Q 2041 3872 1763 3872 
Q 1488 3872 1325 3706 
Q 1163 3541 1138 3156 
L 263 3244 
Q 341 3969 753 4284 
Q 1166 4600 1784 4600 
Q 2463 4600 2850 4234 
Q 3238 3869 3238 3325 
Q 3238 3016 3127 2736 
Q 3016 2456 2775 2150 
Q 2616 1947 2200 1565 
Q 1784 1184 1673 1059 
Q 1563 934 1494 816 
L 3238 816 
z
" transform="scale(0.015625)"/>
       </defs>
       <use xlink:href="#Arial-BoldMT-32"/>
       <use xlink:href="#Arial-BoldMT-30" x="55.615234"/>
       <use xlink:href="#Arial-BoldMT-30" x="111.230469"/>
      </g>
     </g>
    </g>
    <g id="xtick_6">
     <g id="line2d_11">
      <g>
       <use xlink:href="#mda18b61925" x="211.941524" y="170.28" style="stroke: #000000; stroke-width: 0.8"/>
      </g>
     </g>
     <g id="line2d_12">
      <g>
       <use xlink:href="#m5215e6003a" x="211.941524" y="7.2" style="stroke: #000000; stroke-width: 0.8"/>
      </g>
     </g>
     <g id="text_6">
      <!-- 250 -->
      <g transform="translate(202.765977 181.653594)scale(0.11 -0.11)">
       <use xlink:href="#Arial-BoldMT-32"/>
       <use xlink:href="#Arial-BoldMT-35" x="55.615234"/>
       <use xlink:href="#Arial-BoldMT-30" x="111.230469"/>
      </g>
     </g>
    </g>
    <g id="xtick_7">
     <g id="line2d_13">
      <g>
       <use xlink:href="#mda18b61925" x="243.50261" y="170.28" style="stroke: #000000; stroke-width: 0.8"/>
      </g>
     </g>
     <g id="line2d_14">
      <g>
       <use xlink:href="#m5215e6003a" x="243.50261" y="7.2" style="stroke: #000000; stroke-width: 0.8"/>
      </g>
     </g>
     <g id="text_7">
      <!-- 300 -->
      <g transform="translate(234.327063 181.653594)scale(0.11 -0.11)">
       <defs>
        <path id="Arial-BoldMT-33" d="M 241 1216 
L 1091 1319 
Q 1131 994 1309 822 
Q 1488 650 1741 650 
Q 2013 650 2198 856 
Q 2384 1063 2384 1413 
Q 2384 1744 2206 1937 
Q 2028 2131 1772 2131 
Q 1603 2131 1369 2066 
L 1466 2781 
Q 1822 2772 2009 2936 
Q 2197 3100 2197 3372 
Q 2197 3603 2059 3740 
Q 1922 3878 1694 3878 
Q 1469 3878 1309 3722 
Q 1150 3566 1116 3266 
L 306 3403 
Q 391 3819 561 4067 
Q 731 4316 1036 4458 
Q 1341 4600 1719 4600 
Q 2366 4600 2756 4188 
Q 3078 3850 3078 3425 
Q 3078 2822 2419 2463 
Q 2813 2378 3048 2084 
Q 3284 1791 3284 1375 
Q 3284 772 2843 347 
Q 2403 -78 1747 -78 
Q 1125 -78 715 280 
Q 306 638 241 1216 
z
" transform="scale(0.015625)"/>
       </defs>
       <use xlink:href="#Arial-BoldMT-33"/>
       <use xlink:href="#Arial-BoldMT-30" x="55.615234"/>
       <use xlink:href="#Arial-BoldMT-30" x="111.230469"/>
      </g>
     </g>
    </g>
    <g id="xtick_8">
     <g id="line2d_15">
      <g>
       <use xlink:href="#mda18b61925" x="275.063696" y="170.28" style="stroke: #000000; stroke-width: 0.8"/>
      </g>
     </g>
     <g id="line2d_16">
      <g>
       <use xlink:href="#m5215e6003a" x="275.063696" y="7.2" style="stroke: #000000; stroke-width: 0.8"/>
      </g>
     </g>
     <g id="text_8">
      <!-- 350 -->
      <g transform="translate(265.888149 181.653594)scale(0.11 -0.11)">
       <use xlink:href="#Arial-BoldMT-33"/>
       <use xlink:href="#Arial-BoldMT-35" x="55.615234"/>
       <use xlink:href="#Arial-BoldMT-30" x="111.230469"/>
      </g>
     </g>
    </g>
    <g id="xtick_9">
     <g id="line2d_17">
      <g>
       <use xlink:href="#mda18b61925" x="306.624782" y="170.28" style="stroke: #000000; stroke-width: 0.8"/>
      </g>
     </g>
     <g id="line2d_18">
      <g>
       <use xlink:href="#m5215e6003a" x="306.624782" y="7.2" style="stroke: #000000; stroke-width: 0.8"/>
      </g>
     </g>
     <g id="text_9">
      <!-- 400 -->
      <g transform="translate(297.449235 181.653594)scale(0.11 -0.11)">
       <defs>
        <path id="Arial-BoldMT-34" d="M 1994 0 
L 1994 922 
L 119 922 
L 119 1691 
L 2106 4600 
L 2844 4600 
L 2844 1694 
L 3413 1694 
L 3413 922 
L 2844 922 
L 2844 0 
L 1994 0 
z
M 1994 1694 
L 1994 3259 
L 941 1694 
L 1994 1694 
z
" transform="scale(0.015625)"/>
       </defs>
       <use xlink:href="#Arial-BoldMT-34"/>
       <use xlink:href="#Arial-BoldMT-30" x="55.615234"/>
       <use xlink:href="#Arial-BoldMT-30" x="111.230469"/>
      </g>
     </g>
    </g>
    <g id="text_10">
     <!-- Slice -->
     <g transform="translate(178.459609 203.129531)scale(0.13 -0.13)">
      <defs>
       <path id="Arial-BoldMT-53" d="M 231 1491 
L 1131 1578 
Q 1213 1125 1461 912 
Q 1709 700 2131 700 
Q 2578 700 2804 889 
Q 3031 1078 3031 1331 
Q 3031 1494 2936 1608 
Q 2841 1722 2603 1806 
Q 2441 1863 1863 2006 
Q 1119 2191 819 2459 
Q 397 2838 397 3381 
Q 397 3731 595 4036 
Q 794 4341 1167 4500 
Q 1541 4659 2069 4659 
Q 2931 4659 3367 4281 
Q 3803 3903 3825 3272 
L 2900 3231 
Q 2841 3584 2645 3739 
Q 2450 3894 2059 3894 
Q 1656 3894 1428 3728 
Q 1281 3622 1281 3444 
Q 1281 3281 1419 3166 
Q 1594 3019 2269 2859 
Q 2944 2700 3267 2529 
Q 3591 2359 3773 2064 
Q 3956 1769 3956 1334 
Q 3956 941 3737 597 
Q 3519 253 3119 86 
Q 2719 -81 2122 -81 
Q 1253 -81 787 320 
Q 322 722 231 1491 
z
" transform="scale(0.015625)"/>
       <path id="Arial-BoldMT-6c" d="M 459 0 
L 459 4581 
L 1338 4581 
L 1338 0 
L 459 0 
z
" transform="scale(0.015625)"/>
       <path id="Arial-BoldMT-69" d="M 459 3769 
L 459 4581 
L 1338 4581 
L 1338 3769 
L 459 3769 
z
M 459 0 
L 459 3319 
L 1338 3319 
L 1338 0 
L 459 0 
z
" transform="scale(0.015625)"/>
       <path id="Arial-BoldMT-63" d="M 3353 2338 
L 2488 2181 
Q 2444 2441 2289 2572 
Q 2134 2703 1888 2703 
Q 1559 2703 1364 2476 
Q 1169 2250 1169 1719 
Q 1169 1128 1367 884 
Q 1566 641 1900 641 
Q 2150 641 2309 783 
Q 2469 925 2534 1272 
L 3397 1125 
Q 3263 531 2881 228 
Q 2500 -75 1859 -75 
Q 1131 -75 698 384 
Q 266 844 266 1656 
Q 266 2478 700 2936 
Q 1134 3394 1875 3394 
Q 2481 3394 2839 3133 
Q 3197 2872 3353 2338 
z
" transform="scale(0.015625)"/>
       <path id="Arial-BoldMT-65" d="M 2381 1056 
L 3256 909 
Q 3088 428 2723 176 
Q 2359 -75 1813 -75 
Q 947 -75 531 491 
Q 203 944 203 1634 
Q 203 2459 634 2926 
Q 1066 3394 1725 3394 
Q 2466 3394 2894 2905 
Q 3322 2416 3303 1406 
L 1103 1406 
Q 1113 1016 1316 798 
Q 1519 581 1822 581 
Q 2028 581 2168 693 
Q 2309 806 2381 1056 
z
M 2431 1944 
Q 2422 2325 2234 2523 
Q 2047 2722 1778 2722 
Q 1491 2722 1303 2513 
Q 1116 2303 1119 1944 
L 2431 1944 
z
" transform="scale(0.015625)"/>
      </defs>
      <use xlink:href="#Arial-BoldMT-53"/>
      <use xlink:href="#Arial-BoldMT-6c" x="66.699219"/>
      <use xlink:href="#Arial-BoldMT-69" x="94.482422"/>
      <use xlink:href="#Arial-BoldMT-63" x="122.265625"/>
      <use xlink:href="#Arial-BoldMT-65" x="177.880859"/>
     </g>
    </g>
   </g>
   <g id="matplotlib.axis_2">
    <g id="ytick_1">
     <g id="line2d_19">
      <defs>
       <path id="me95ff85937" d="M 0 0 
L 3.5 0 
" style="stroke: #000000; stroke-width: 0.8"/>
      </defs>
      <g>
       <use xlink:href="#me95ff85937" x="54.136094" y="162.868222" style="stroke: #000000; stroke-width: 0.8"/>
      </g>
     </g>
     <g id="line2d_20">
      <defs>
       <path id="m23fde7d9e0" d="M 0 0 
L -3.5 0 
" style="stroke: #000000; stroke-width: 0.8"/>
      </defs>
      <g>
       <use xlink:href="#m23fde7d9e0" x="333.136094" y="162.868222" style="stroke: #000000; stroke-width: 0.8"/>
      </g>
     </g>
     <g id="text_11">
      <!-- 0.00 -->
      <g transform="translate(29.229063 166.805019)scale(0.11 -0.11)">
       <defs>
        <path id="Arial-BoldMT-2e" d="M 459 0 
L 459 878 
L 1338 878 
L 1338 0 
L 459 0 
z
" transform="scale(0.015625)"/>
       </defs>
       <use xlink:href="#Arial-BoldMT-30"/>
       <use xlink:href="#Arial-BoldMT-2e" x="55.615234"/>
       <use xlink:href="#Arial-BoldMT-30" x="83.398438"/>
       <use xlink:href="#Arial-BoldMT-30" x="139.013672"/>
      </g>
     </g>
    </g>
    <g id="ytick_2">
     <g id="line2d_21">
      <g>
       <use xlink:href="#me95ff85937" x="54.136094" y="133.214607" style="stroke: #000000; stroke-width: 0.8"/>
      </g>
     </g>
     <g id="line2d_22">
      <g>
       <use xlink:href="#m23fde7d9e0" x="333.136094" y="133.214607" style="stroke: #000000; stroke-width: 0.8"/>
      </g>
     </g>
     <g id="text_12">
      <!-- 0.20 -->
      <g transform="translate(29.229063 137.151404)scale(0.11 -0.11)">
       <use xlink:href="#Arial-BoldMT-30"/>
       <use xlink:href="#Arial-BoldMT-2e" x="55.615234"/>
       <use xlink:href="#Arial-BoldMT-32" x="83.398438"/>
       <use xlink:href="#Arial-BoldMT-30" x="139.013672"/>
      </g>
     </g>
    </g>
    <g id="ytick_3">
     <g id="line2d_23">
      <g>
       <use xlink:href="#me95ff85937" x="54.136094" y="103.560991" style="stroke: #000000; stroke-width: 0.8"/>
      </g>
     </g>
     <g id="line2d_24">
      <g>
       <use xlink:href="#m23fde7d9e0" x="333.136094" y="103.560991" style="stroke: #000000; stroke-width: 0.8"/>
      </g>
     </g>
     <g id="text_13">
      <!-- 0.40 -->
      <g transform="translate(29.229063 107.497788)scale(0.11 -0.11)">
       <use xlink:href="#Arial-BoldMT-30"/>
       <use xlink:href="#Arial-BoldMT-2e" x="55.615234"/>
       <use xlink:href="#Arial-BoldMT-34" x="83.398438"/>
       <use xlink:href="#Arial-BoldMT-30" x="139.013672"/>
      </g>
     </g>
    </g>
    <g id="ytick_4">
     <g id="line2d_25">
      <g>
       <use xlink:href="#me95ff85937" x="54.136094" y="73.907375" style="stroke: #000000; stroke-width: 0.8"/>
      </g>
     </g>
     <g id="line2d_26">
      <g>
       <use xlink:href="#m23fde7d9e0" x="333.136094" y="73.907375" style="stroke: #000000; stroke-width: 0.8"/>
      </g>
     </g>
     <g id="text_14">
      <!-- 0.60 -->
      <g transform="translate(29.229063 77.844172)scale(0.11 -0.11)">
       <defs>
        <path id="Arial-BoldMT-36" d="M 3247 3459 
L 2397 3366 
Q 2366 3628 2234 3753 
Q 2103 3878 1894 3878 
Q 1616 3878 1423 3628 
Q 1231 3378 1181 2588 
Q 1509 2975 1997 2975 
Q 2547 2975 2939 2556 
Q 3331 2138 3331 1475 
Q 3331 772 2918 347 
Q 2506 -78 1859 -78 
Q 1166 -78 719 461 
Q 272 1000 272 2228 
Q 272 3488 737 4044 
Q 1203 4600 1947 4600 
Q 2469 4600 2811 4308 
Q 3153 4016 3247 3459 
z
M 1256 1544 
Q 1256 1116 1453 883 
Q 1650 650 1903 650 
Q 2147 650 2309 840 
Q 2472 1031 2472 1466 
Q 2472 1913 2297 2120 
Q 2122 2328 1859 2328 
Q 1606 2328 1431 2129 
Q 1256 1931 1256 1544 
z
" transform="scale(0.015625)"/>
       </defs>
       <use xlink:href="#Arial-BoldMT-30"/>
       <use xlink:href="#Arial-BoldMT-2e" x="55.615234"/>
       <use xlink:href="#Arial-BoldMT-36" x="83.398438"/>
       <use xlink:href="#Arial-BoldMT-30" x="139.013672"/>
      </g>
     </g>
    </g>
    <g id="ytick_5">
     <g id="line2d_27">
      <g>
       <use xlink:href="#me95ff85937" x="54.136094" y="44.25376" style="stroke: #000000; stroke-width: 0.8"/>
      </g>
     </g>
     <g id="line2d_28">
      <g>
       <use xlink:href="#m23fde7d9e0" x="333.136094" y="44.25376" style="stroke: #000000; stroke-width: 0.8"/>
      </g>
     </g>
     <g id="text_15">
      <!-- 0.80 -->
      <g transform="translate(29.229063 48.190556)scale(0.11 -0.11)">
       <defs>
        <path id="Arial-BoldMT-38" d="M 1025 2472 
Q 684 2616 529 2867 
Q 375 3119 375 3419 
Q 375 3931 733 4265 
Q 1091 4600 1750 4600 
Q 2403 4600 2764 4265 
Q 3125 3931 3125 3419 
Q 3125 3100 2959 2851 
Q 2794 2603 2494 2472 
Q 2875 2319 3073 2025 
Q 3272 1731 3272 1347 
Q 3272 713 2867 316 
Q 2463 -81 1791 -81 
Q 1166 -81 750 247 
Q 259 634 259 1309 
Q 259 1681 443 1992 
Q 628 2303 1025 2472 
z
M 1206 3356 
Q 1206 3094 1354 2947 
Q 1503 2800 1750 2800 
Q 2000 2800 2150 2948 
Q 2300 3097 2300 3359 
Q 2300 3606 2151 3754 
Q 2003 3903 1759 3903 
Q 1506 3903 1356 3753 
Q 1206 3603 1206 3356 
z
M 1125 1394 
Q 1125 1031 1311 828 
Q 1497 625 1775 625 
Q 2047 625 2225 820 
Q 2403 1016 2403 1384 
Q 2403 1706 2222 1901 
Q 2041 2097 1763 2097 
Q 1441 2097 1283 1875 
Q 1125 1653 1125 1394 
z
" transform="scale(0.015625)"/>
       </defs>
       <use xlink:href="#Arial-BoldMT-30"/>
       <use xlink:href="#Arial-BoldMT-2e" x="55.615234"/>
       <use xlink:href="#Arial-BoldMT-38" x="83.398438"/>
       <use xlink:href="#Arial-BoldMT-30" x="139.013672"/>
      </g>
     </g>
    </g>
    <g id="ytick_6">
     <g id="line2d_29">
      <g>
       <use xlink:href="#me95ff85937" x="54.136094" y="14.600144" style="stroke: #000000; stroke-width: 0.8"/>
      </g>
     </g>
     <g id="line2d_30">
      <g>
       <use xlink:href="#m23fde7d9e0" x="333.136094" y="14.600144" style="stroke: #000000; stroke-width: 0.8"/>
      </g>
     </g>
     <g id="text_16">
      <!-- 1.00 -->
      <g transform="translate(29.229063 18.536941)scale(0.11 -0.11)">
       <use xlink:href="#Arial-BoldMT-31"/>
       <use xlink:href="#Arial-BoldMT-2e" x="55.615234"/>
       <use xlink:href="#Arial-BoldMT-30" x="83.398438"/>
       <use xlink:href="#Arial-BoldMT-30" x="139.013672"/>
      </g>
     </g>
    </g>
    <g id="ytick_7">
     <g id="line2d_31">
      <defs>
       <path id="mac7eaf0648" d="M 0 0 
L 2 0 
" style="stroke: #000000; stroke-width: 0.6"/>
      </defs>
      <g>
       <use xlink:href="#mac7eaf0648" x="54.136094" y="148.041415" style="stroke: #000000; stroke-width: 0.6"/>
      </g>
     </g>
     <g id="line2d_32">
      <defs>
       <path id="mf33868fa07" d="M 0 0 
L -2 0 
" style="stroke: #000000; stroke-width: 0.6"/>
      </defs>
      <g>
       <use xlink:href="#mf33868fa07" x="333.136094" y="148.041415" style="stroke: #000000; stroke-width: 0.6"/>
      </g>
     </g>
    </g>
    <g id="ytick_8">
     <g id="line2d_33">
      <g>
       <use xlink:href="#mac7eaf0648" x="54.136094" y="118.387799" style="stroke: #000000; stroke-width: 0.6"/>
      </g>
     </g>
     <g id="line2d_34">
      <g>
       <use xlink:href="#mf33868fa07" x="333.136094" y="118.387799" style="stroke: #000000; stroke-width: 0.6"/>
      </g>
     </g>
    </g>
    <g id="ytick_9">
     <g id="line2d_35">
      <g>
       <use xlink:href="#mac7eaf0648" x="54.136094" y="88.734183" style="stroke: #000000; stroke-width: 0.6"/>
      </g>
     </g>
     <g id="line2d_36">
      <g>
       <use xlink:href="#mf33868fa07" x="333.136094" y="88.734183" style="stroke: #000000; stroke-width: 0.6"/>
      </g>
     </g>
    </g>
    <g id="ytick_10">
     <g id="line2d_37">
      <g>
       <use xlink:href="#mac7eaf0648" x="54.136094" y="59.080567" style="stroke: #000000; stroke-width: 0.6"/>
      </g>
     </g>
     <g id="line2d_38">
      <g>
       <use xlink:href="#mf33868fa07" x="333.136094" y="59.080567" style="stroke: #000000; stroke-width: 0.6"/>
      </g>
     </g>
    </g>
    <g id="ytick_11">
     <g id="line2d_39">
      <g>
       <use xlink:href="#mac7eaf0648" x="54.136094" y="29.426952" style="stroke: #000000; stroke-width: 0.6"/>
      </g>
     </g>
     <g id="line2d_40">
      <g>
       <use xlink:href="#mf33868fa07" x="333.136094" y="29.426952" style="stroke: #000000; stroke-width: 0.6"/>
      </g>
     </g>
    </g>
    <g id="text_17">
     <!-- Softmax Output -->
     <g transform="translate(16.663594 137.483906)rotate(-90)scale(0.13 -0.13)">
      <defs>
       <path id="Arial-BoldMT-6f" d="M 256 1706 
Q 256 2144 472 2553 
Q 688 2963 1083 3178 
Q 1478 3394 1966 3394 
Q 2719 3394 3200 2905 
Q 3681 2416 3681 1669 
Q 3681 916 3195 420 
Q 2709 -75 1972 -75 
Q 1516 -75 1102 131 
Q 688 338 472 736 
Q 256 1134 256 1706 
z
M 1156 1659 
Q 1156 1166 1390 903 
Q 1625 641 1969 641 
Q 2313 641 2545 903 
Q 2778 1166 2778 1666 
Q 2778 2153 2545 2415 
Q 2313 2678 1969 2678 
Q 1625 2678 1390 2415 
Q 1156 2153 1156 1659 
z
" transform="scale(0.015625)"/>
       <path id="Arial-BoldMT-66" d="M 75 3319 
L 563 3319 
L 563 3569 
Q 563 3988 652 4194 
Q 741 4400 980 4529 
Q 1219 4659 1584 4659 
Q 1959 4659 2319 4547 
L 2200 3934 
Q 1991 3984 1797 3984 
Q 1606 3984 1523 3895 
Q 1441 3806 1441 3553 
L 1441 3319 
L 2097 3319 
L 2097 2628 
L 1441 2628 
L 1441 0 
L 563 0 
L 563 2628 
L 75 2628 
L 75 3319 
z
" transform="scale(0.015625)"/>
       <path id="Arial-BoldMT-74" d="M 1981 3319 
L 1981 2619 
L 1381 2619 
L 1381 1281 
Q 1381 875 1398 808 
Q 1416 741 1477 697 
Q 1538 653 1625 653 
Q 1747 653 1978 738 
L 2053 56 
Q 1747 -75 1359 -75 
Q 1122 -75 931 4 
Q 741 84 652 211 
Q 563 338 528 553 
Q 500 706 500 1172 
L 500 2619 
L 97 2619 
L 97 3319 
L 500 3319 
L 500 3978 
L 1381 4491 
L 1381 3319 
L 1981 3319 
z
" transform="scale(0.015625)"/>
       <path id="Arial-BoldMT-6d" d="M 394 3319 
L 1203 3319 
L 1203 2866 
Q 1638 3394 2238 3394 
Q 2556 3394 2790 3262 
Q 3025 3131 3175 2866 
Q 3394 3131 3647 3262 
Q 3900 3394 4188 3394 
Q 4553 3394 4806 3245 
Q 5059 3097 5184 2809 
Q 5275 2597 5275 2122 
L 5275 0 
L 4397 0 
L 4397 1897 
Q 4397 2391 4306 2534 
Q 4184 2722 3931 2722 
Q 3747 2722 3584 2609 
Q 3422 2497 3350 2280 
Q 3278 2063 3278 1594 
L 3278 0 
L 2400 0 
L 2400 1819 
Q 2400 2303 2353 2443 
Q 2306 2584 2207 2653 
Q 2109 2722 1941 2722 
Q 1738 2722 1575 2612 
Q 1413 2503 1342 2297 
Q 1272 2091 1272 1613 
L 1272 0 
L 394 0 
L 394 3319 
z
" transform="scale(0.015625)"/>
       <path id="Arial-BoldMT-61" d="M 1116 2306 
L 319 2450 
Q 453 2931 781 3162 
Q 1109 3394 1756 3394 
Q 2344 3394 2631 3255 
Q 2919 3116 3036 2902 
Q 3153 2688 3153 2116 
L 3144 1091 
Q 3144 653 3186 445 
Q 3228 238 3344 0 
L 2475 0 
Q 2441 88 2391 259 
Q 2369 338 2359 363 
Q 2134 144 1878 34 
Q 1622 -75 1331 -75 
Q 819 -75 523 203 
Q 228 481 228 906 
Q 228 1188 362 1408 
Q 497 1628 739 1745 
Q 981 1863 1438 1950 
Q 2053 2066 2291 2166 
L 2291 2253 
Q 2291 2506 2166 2614 
Q 2041 2722 1694 2722 
Q 1459 2722 1328 2630 
Q 1197 2538 1116 2306 
z
M 2291 1594 
Q 2122 1538 1756 1459 
Q 1391 1381 1278 1306 
Q 1106 1184 1106 997 
Q 1106 813 1243 678 
Q 1381 544 1594 544 
Q 1831 544 2047 700 
Q 2206 819 2256 991 
Q 2291 1103 2291 1419 
L 2291 1594 
z
" transform="scale(0.015625)"/>
       <path id="Arial-BoldMT-78" d="M 38 0 
L 1234 1709 
L 88 3319 
L 1159 3319 
L 1747 2406 
L 2366 3319 
L 3397 3319 
L 2272 1747 
L 3500 0 
L 2422 0 
L 1747 1028 
L 1066 0 
L 38 0 
z
" transform="scale(0.015625)"/>
       <path id="Arial-BoldMT-20" transform="scale(0.015625)"/>
       <path id="Arial-BoldMT-4f" d="M 278 2263 
Q 278 2963 488 3438 
Q 644 3788 914 4066 
Q 1184 4344 1506 4478 
Q 1934 4659 2494 4659 
Q 3506 4659 4114 4031 
Q 4722 3403 4722 2284 
Q 4722 1175 4119 548 
Q 3516 -78 2506 -78 
Q 1484 -78 881 545 
Q 278 1169 278 2263 
z
M 1231 2294 
Q 1231 1516 1590 1114 
Q 1950 713 2503 713 
Q 3056 713 3411 1111 
Q 3766 1509 3766 2306 
Q 3766 3094 3420 3481 
Q 3075 3869 2503 3869 
Q 1931 3869 1581 3476 
Q 1231 3084 1231 2294 
z
" transform="scale(0.015625)"/>
       <path id="Arial-BoldMT-75" d="M 2644 0 
L 2644 497 
Q 2463 231 2167 78 
Q 1872 -75 1544 -75 
Q 1209 -75 943 72 
Q 678 219 559 484 
Q 441 750 441 1219 
L 441 3319 
L 1319 3319 
L 1319 1794 
Q 1319 1094 1367 936 
Q 1416 778 1544 686 
Q 1672 594 1869 594 
Q 2094 594 2272 717 
Q 2450 841 2515 1023 
Q 2581 1206 2581 1919 
L 2581 3319 
L 3459 3319 
L 3459 0 
L 2644 0 
z
" transform="scale(0.015625)"/>
       <path id="Arial-BoldMT-70" d="M 434 3319 
L 1253 3319 
L 1253 2831 
Q 1413 3081 1684 3237 
Q 1956 3394 2288 3394 
Q 2866 3394 3269 2941 
Q 3672 2488 3672 1678 
Q 3672 847 3265 386 
Q 2859 -75 2281 -75 
Q 2006 -75 1782 34 
Q 1559 144 1313 409 
L 1313 -1263 
L 434 -1263 
L 434 3319 
z
M 1303 1716 
Q 1303 1156 1525 889 
Q 1747 622 2066 622 
Q 2372 622 2575 867 
Q 2778 1113 2778 1672 
Q 2778 2194 2568 2447 
Q 2359 2700 2050 2700 
Q 1728 2700 1515 2451 
Q 1303 2203 1303 1716 
z
" transform="scale(0.015625)"/>
      </defs>
      <use xlink:href="#Arial-BoldMT-53"/>
      <use xlink:href="#Arial-BoldMT-6f" x="66.699219"/>
      <use xlink:href="#Arial-BoldMT-66" x="127.783203"/>
      <use xlink:href="#Arial-BoldMT-74" x="161.083984"/>
      <use xlink:href="#Arial-BoldMT-6d" x="194.384766"/>
      <use xlink:href="#Arial-BoldMT-61" x="283.300781"/>
      <use xlink:href="#Arial-BoldMT-78" x="338.916016"/>
      <use xlink:href="#Arial-BoldMT-20" x="394.53125"/>
      <use xlink:href="#Arial-BoldMT-4f" x="422.314453"/>
      <use xlink:href="#Arial-BoldMT-75" x="500.097656"/>
      <use xlink:href="#Arial-BoldMT-74" x="561.181641"/>
      <use xlink:href="#Arial-BoldMT-70" x="594.482422"/>
      <use xlink:href="#Arial-BoldMT-75" x="655.566406"/>
      <use xlink:href="#Arial-BoldMT-74" x="716.650391"/>
     </g>
    </g>
   </g>
   <g id="line2d_41">
    <path d="M 54.136094 14.721612 
L 58.554646 14.802704 
L 59.185868 14.670209 
L 62.973198 14.672011 
L 64.235641 14.71353 
L 64.866863 28.559012 
L 65.498085 34.226187 
L 66.129306 53.292616 
L 66.760528 53.341 
L 67.39175 51.692524 
L 68.022972 52.541557 
L 68.654193 52.994932 
L 69.285415 49.444503 
L 69.916637 34.796537 
L 70.547858 25.374917 
L 71.810302 19.550896 
L 72.441524 20.889102 
L 73.072745 31.449448 
L 73.703967 37.055935 
L 74.335189 19.853162 
L 74.96641 21.474904 
L 75.597632 20.471593 
L 76.228854 30.656621 
L 76.860076 28.826994 
L 77.491297 21.870097 
L 78.122519 23.602829 
L 78.753741 18.770765 
L 79.384963 20.549575 
L 80.016184 25.28156 
L 80.647406 24.371573 
L 81.278628 28.737096 
L 81.909849 29.027678 
L 82.541071 40.539362 
L 83.172293 43.29664 
L 83.803515 81.640637 
L 84.434736 141.91487 
L 85.065958 103.908345 
L 85.69718 104.960629 
L 86.328401 122.82167 
L 86.959623 97.791902 
L 87.590845 106.377644 
L 88.222067 70.86683 
L 88.853288 47.879571 
L 89.48451 58.509168 
L 90.115732 143.140867 
L 90.746953 112.894357 
L 92.009397 144.147108 
L 92.640619 124.833383 
L 93.27184 101.030292 
L 93.903062 112.144319 
L 95.165506 138.337008 
L 95.796727 91.040438 
L 97.059171 147.895681 
L 97.690392 162.337085 
L 98.321614 147.402941 
L 98.952836 162.010404 
L 99.584058 162.577218 
L 100.215279 162.222105 
L 100.846501 151.528506 
L 101.477723 87.838714 
L 102.108944 60.679623 
L 102.740166 144.709737 
L 103.371388 162.050822 
L 104.00261 152.624709 
L 104.633831 160.360155 
L 105.265053 152.174845 
L 105.896275 162.775381 
L 106.527496 162.684475 
L 107.158718 161.094214 
L 107.78994 115.91335 
L 108.421162 132.211524 
L 109.052383 162.653001 
L 109.683605 162.850871 
L 110.314827 48.645048 
L 110.946049 39.558168 
L 111.57727 130.906313 
L 112.208492 82.395291 
L 112.839714 68.710193 
L 113.470935 63.438455 
L 114.102157 159.143464 
L 114.733379 162.191401 
L 115.364601 151.925635 
L 115.995822 161.380662 
L 116.627044 72.380567 
L 117.258266 56.07047 
L 117.889487 52.628452 
L 118.520709 123.367973 
L 119.151931 36.90247 
L 119.783153 148.082918 
L 120.414374 155.86113 
L 121.045596 154.897328 
L 121.676818 46.569787 
L 122.308039 141.168157 
L 122.939261 135.190524 
L 123.570483 156.415995 
L 124.201705 131.697902 
L 124.832926 162.680533 
L 125.464148 161.429877 
L 126.09537 139.832069 
L 126.726591 162.820278 
L 127.357813 162.784175 
L 127.989035 161.540555 
L 128.620257 157.982118 
L 129.251478 151.09992 
L 129.8827 78.773478 
L 130.513922 79.807086 
L 131.145144 81.795045 
L 131.776365 162.804663 
L 132.407587 162.70825 
L 133.038809 57.793943 
L 133.67003 55.084579 
L 134.301252 144.305495 
L 134.932474 161.483493 
L 135.563696 128.264243 
L 136.194917 101.969108 
L 136.826139 46.220715 
L 137.457361 39.990706 
L 138.088582 159.205678 
L 139.351026 34.63653 
L 139.982248 104.442463 
L 140.613469 39.000026 
L 141.244691 156.363338 
L 141.875913 61.704858 
L 142.507134 105.415627 
L 143.138356 46.688297 
L 143.769578 122.94807 
L 144.4008 30.021419 
L 145.032021 115.45351 
L 145.663243 108.863388 
L 146.294465 125.408924 
L 146.925687 162.255395 
L 147.556908 85.906505 
L 148.18813 84.032909 
L 148.819352 161.149999 
L 149.450573 32.089431 
L 150.081795 34.544951 
L 150.713017 145.02868 
L 151.344239 160.319361 
L 151.97546 155.509098 
L 152.606682 162.498912 
L 153.237904 158.026594 
L 153.869125 44.458458 
L 154.500347 67.193147 
L 155.131569 47.144965 
L 155.762791 74.754177 
L 156.394012 161.34312 
L 157.025234 45.301903 
L 157.656456 79.452036 
L 158.287677 162.623893 
L 158.918899 160.346529 
L 159.550121 83.122478 
L 160.181343 97.354451 
L 160.812564 21.697049 
L 162.075008 21.280884 
L 162.706229 19.118723 
L 163.337451 19.440793 
L 163.968673 26.385728 
L 164.599895 40.245243 
L 165.231116 49.469899 
L 165.862338 26.039639 
L 166.49356 106.474961 
L 167.124782 62.269709 
L 167.756003 39.020994 
L 168.387225 22.551437 
L 169.018447 22.043488 
L 169.649668 25.755971 
L 170.28089 25.232762 
L 170.912112 46.528613 
L 171.543334 27.76926 
L 172.174555 27.340491 
L 172.805777 33.554137 
L 173.436999 135.86765 
L 174.06822 21.776048 
L 174.699442 107.096647 
L 175.330664 147.895074 
L 175.961886 134.295458 
L 176.593107 21.078621 
L 177.224329 19.345313 
L 177.855551 22.159375 
L 178.486772 65.097274 
L 179.117994 38.865316 
L 179.749216 20.807419 
L 180.380438 20.398633 
L 181.011659 20.734267 
L 181.642881 19.943502 
L 182.274103 18.522072 
L 183.536546 21.159459 
L 184.79899 22.344996 
L 185.430211 21.466336 
L 186.061433 21.837098 
L 187.323877 19.494296 
L 187.955098 20.400641 
L 188.58632 24.4822 
L 189.217542 44.641011 
L 189.848763 79.131571 
L 190.479985 32.556055 
L 191.111207 42.602797 
L 191.742429 27.258657 
L 192.37365 26.173387 
L 193.004872 32.741541 
L 193.636094 22.620407 
L 194.267315 42.30156 
L 194.898537 22.141671 
L 195.529759 25.868487 
L 196.160981 53.340827 
L 196.792202 160.773457 
L 197.423424 162.826607 
L 198.685868 162.849304 
L 202.473198 162.611989 
L 203.10442 160.448323 
L 203.735641 162.818556 
L 205.629306 162.861333 
L 207.522972 162.813322 
L 208.154193 162.345783 
L 208.785415 160.308607 
L 209.416637 161.956437 
L 210.047858 161.939228 
L 210.67908 116.234237 
L 211.310302 49.174054 
L 211.941524 42.928386 
L 212.572745 34.411157 
L 213.203967 48.578291 
L 213.835189 49.361868 
L 214.46641 41.63279 
L 215.097632 39.400529 
L 215.728854 39.060235 
L 216.991297 45.663247 
L 217.622519 47.048033 
L 218.253741 41.88658 
L 218.884963 40.799961 
L 219.516184 41.367703 
L 220.147406 45.261337 
L 220.778628 59.219191 
L 221.409849 57.415087 
L 222.041071 35.630546 
L 222.672293 37.909259 
L 223.303515 42.379769 
L 223.934736 36.15244 
L 224.565958 31.636199 
L 225.19718 37.413751 
L 225.828401 31.027491 
L 226.459623 31.030383 
L 227.090845 34.451928 
L 227.722067 34.981202 
L 228.353288 37.313323 
L 228.98451 30.781303 
L 229.615732 28.948691 
L 230.246953 38.985024 
L 230.878175 24.968535 
L 231.509397 26.925546 
L 232.140619 29.710412 
L 232.77184 27.329266 
L 233.403062 24.484201 
L 234.034284 25.693576 
L 235.296727 31.882826 
L 235.927949 30.143789 
L 236.559171 25.130854 
L 237.190392 25.123531 
L 237.821614 26.391673 
L 238.452836 22.048845 
L 239.084058 21.082807 
L 239.715279 21.308134 
L 240.346501 21.064686 
L 240.977723 19.67524 
L 241.608944 23.243107 
L 242.240166 109.649025 
L 242.871388 27.050169 
L 243.50261 17.358233 
L 244.133831 15.854003 
L 244.765053 15.892066 
L 245.396275 16.766947 
L 246.027496 16.080583 
L 247.28994 15.765743 
L 247.921162 15.160733 
L 248.552383 15.664346 
L 249.183605 15.043357 
L 249.814827 14.819553 
L 250.446049 14.728 
L 251.07727 14.830461 
L 253.602157 14.676707 
L 262.439261 14.743631 
L 263.070483 15.025294 
L 263.701705 14.690319 
L 264.964148 14.849154 
L 265.59537 15.458513 
L 266.226591 15.620674 
L 266.857813 14.797398 
L 268.120257 14.760494 
L 278.219804 14.853575 
L 278.851026 48.940664 
L 279.482248 14.762011 
L 281.375913 14.689507 
L 282.638356 14.86166 
L 283.269578 14.948597 
L 283.9008 14.733664 
L 285.163243 14.699605 
L 287.68813 14.761111 
L 288.319352 14.969353 
L 288.950573 14.694309 
L 290.213017 14.747001 
L 291.47546 14.745925 
L 292.737904 14.688007 
L 293.369125 14.763386 
L 294.000347 14.668691 
L 295.894012 14.704053 
L 297.156456 14.681245 
L 298.418899 14.721383 
L 299.681343 14.676813 
L 300.312564 14.687053 
L 300.943786 14.881101 
L 302.837451 14.76619 
L 305.99356 14.688219 
L 306.624782 15.124115 
L 307.256003 14.884236 
L 309.149668 14.782008 
L 309.78089 19.142842 
L 310.412112 25.258361 
L 311.043334 149.812742 
L 311.674555 158.400781 
L 312.936999 162.735391 
L 313.56822 162.861646 
L 314.199442 162.550618 
L 314.830664 23.745116 
L 315.461886 14.648964 
L 324.930211 14.641456 
L 332.504872 14.64423 
L 332.504872 14.64423 
" clip-path="url(#p07ac40480f)" style="fill: none; stroke: #1f77b4; stroke-width: 1.5; stroke-linecap: square"/>
   </g>
   <g id="line2d_42">
    <path d="M 54.136094 162.784413 
L 64.235641 162.784301 
L 64.866863 149.301757 
L 65.498085 150.459493 
L 66.129306 125.458734 
L 66.760528 124.78795 
L 67.39175 126.258902 
L 68.654193 124.977436 
L 69.285415 128.690355 
L 69.916637 143.12877 
L 70.547858 153.971693 
L 71.17908 157.121245 
L 71.810302 159.401793 
L 72.441524 158.364275 
L 73.072745 157.926501 
L 73.703967 160.367519 
L 74.335189 159.455012 
L 74.96641 157.956229 
L 75.597632 158.745436 
L 76.228854 150.899019 
L 76.860076 155.175556 
L 77.491297 155.932865 
L 78.122519 154.409791 
L 78.753741 159.927343 
L 79.384963 157.1333 
L 80.016184 152.441328 
L 80.647406 153.503029 
L 81.278628 149.068173 
L 81.909849 148.750518 
L 82.541071 139.819624 
L 83.172293 157.632654 
L 83.803515 155.803433 
L 84.434736 160.75138 
L 85.065958 159.069116 
L 85.69718 157.765878 
L 86.328401 160.568616 
L 86.959623 159.47382 
L 87.590845 154.375395 
L 88.222067 156.688494 
L 88.853288 147.834306 
L 89.48451 150.050269 
L 90.115732 161.567159 
L 91.378175 155.220761 
L 92.009397 159.104132 
L 92.640619 149.40584 
L 93.27184 137.636996 
L 93.903062 145.156715 
L 94.534284 150.740279 
L 95.165506 158.685355 
L 96.427949 146.487466 
L 97.059171 161.144771 
L 97.690392 162.811236 
L 98.321614 161.591936 
L 98.952836 162.736341 
L 100.215279 162.806989 
L 100.846501 156.524795 
L 101.477723 153.745655 
L 102.108944 149.580626 
L 102.740166 159.711798 
L 103.371388 162.761997 
L 104.00261 161.195132 
L 104.633831 162.605164 
L 105.265053 162.211132 
L 105.896275 162.862245 
L 106.527496 162.856415 
L 107.158718 162.290909 
L 107.78994 157.894971 
L 108.421162 160.137312 
L 109.052383 162.851006 
L 109.683605 162.865808 
L 110.314827 155.380092 
L 110.946049 155.108107 
L 111.57727 160.584536 
L 112.208492 152.866214 
L 112.839714 156.207429 
L 113.470935 154.768553 
L 114.102157 162.591624 
L 114.733379 162.826767 
L 115.364601 162.206828 
L 115.995822 162.745874 
L 116.627044 126.425012 
L 117.258266 156.718906 
L 117.889487 156.934394 
L 118.520709 160.669892 
L 119.151931 149.739062 
L 119.783153 161.883011 
L 120.414374 162.369489 
L 121.045596 162.364405 
L 121.676818 143.748238 
L 122.308039 160.167481 
L 122.939261 160.884349 
L 123.570483 160.975705 
L 124.201705 152.81417 
L 124.832926 162.851779 
L 125.464148 162.735947 
L 126.09537 159.860149 
L 126.726591 162.860144 
L 127.989035 162.758092 
L 128.620257 162.540616 
L 129.251478 161.960053 
L 129.8827 150.257254 
L 130.513922 154.859078 
L 131.145144 155.525067 
L 131.776365 162.860568 
L 132.407587 162.856328 
L 133.038809 153.917741 
L 133.67003 155.636092 
L 134.301252 161.016834 
L 134.932474 162.777566 
L 135.563696 160.840551 
L 136.194917 97.260115 
L 136.826139 142.804286 
L 137.457361 143.780157 
L 138.088582 162.271042 
L 138.719804 150.776048 
L 139.351026 144.420661 
L 139.982248 157.536306 
L 140.613469 148.313388 
L 141.244691 162.386608 
L 141.875913 150.656926 
L 142.507134 158.386776 
L 143.138356 146.842686 
L 143.769578 158.236343 
L 144.4008 149.238285 
L 145.032021 159.355245 
L 145.663243 155.706692 
L 146.294465 160.073882 
L 146.925687 162.811592 
L 147.556908 155.613142 
L 148.18813 156.681053 
L 148.819352 156.934592 
L 149.450573 147.703886 
L 150.081795 151.208338 
L 150.713017 160.992537 
L 151.344239 162.699627 
L 151.97546 162.327581 
L 152.606682 162.831124 
L 153.237904 162.414851 
L 153.869125 155.475975 
L 154.500347 156.424103 
L 155.131569 150.733745 
L 155.762791 155.501894 
L 156.394012 162.744046 
L 157.025234 156.029548 
L 157.656456 155.304375 
L 158.287677 162.845132 
L 158.918899 162.663795 
L 159.550121 158.384719 
L 160.181343 160.169683 
L 160.812564 158.844022 
L 161.443786 158.423399 
L 162.075008 157.343838 
L 162.706229 160.324575 
L 163.337451 159.51115 
L 163.968673 154.89325 
L 164.599895 144.118391 
L 165.231116 148.283449 
L 165.862338 156.584771 
L 166.49356 161.384575 
L 167.124782 161.61842 
L 167.756003 160.591602 
L 168.387225 159.879507 
L 169.018447 160.295683 
L 169.649668 159.007745 
L 170.28089 158.531904 
L 170.912112 156.154538 
L 171.543334 156.119568 
L 172.174555 152.629483 
L 172.805777 154.833801 
L 173.436999 161.898173 
L 174.06822 160.450853 
L 174.699442 161.003754 
L 175.330664 161.980103 
L 175.961886 159.824961 
L 176.593107 159.848377 
L 177.224329 159.708934 
L 177.855551 160.029858 
L 178.486772 160.827331 
L 179.749216 158.019116 
L 180.380438 159.761699 
L 181.011659 157.580127 
L 181.642881 157.807691 
L 182.274103 159.414421 
L 184.167768 156.153661 
L 184.79899 155.456167 
L 185.430211 156.634445 
L 186.061433 156.267593 
L 186.692655 158.041335 
L 187.323877 158.375381 
L 187.955098 157.656504 
L 188.58632 154.073948 
L 189.217542 134.33084 
L 189.848763 101.713121 
L 190.479985 145.838029 
L 191.111207 135.653136 
L 191.742429 150.848471 
L 192.37365 151.655352 
L 193.004872 145.675782 
L 193.636094 155.191278 
L 194.267315 135.630031 
L 194.898537 155.530641 
L 195.529759 151.860837 
L 196.160981 124.724405 
L 196.792202 16.977274 
L 197.423424 14.790523 
L 198.054646 14.637905 
L 198.685868 18.255404 
L 199.317089 22.967999 
L 199.948311 16.371028 
L 200.579533 14.961948 
L 201.210754 14.846353 
L 201.841976 15.054987 
L 202.473198 15.43349 
L 203.10442 21.855934 
L 203.735641 14.68919 
L 204.998085 14.622676 
L 207.522972 14.674871 
L 208.154193 15.243693 
L 208.785415 19.117975 
L 209.416637 16.561244 
L 210.047858 15.816372 
L 210.67908 61.876817 
L 211.310302 128.756183 
L 211.941524 134.950643 
L 212.572745 143.269482 
L 213.203967 129.095779 
L 213.835189 128.297482 
L 214.46641 136.043923 
L 215.097632 138.292844 
L 215.728854 138.586328 
L 216.360076 135.007242 
L 216.991297 132.096069 
L 217.622519 130.624026 
L 218.253741 135.792949 
L 218.884963 136.86468 
L 219.516184 136.306936 
L 220.147406 132.423277 
L 220.778628 118.564887 
L 221.409849 120.256296 
L 222.041071 142.015253 
L 222.672293 139.742147 
L 223.303515 135.296746 
L 223.934736 141.465418 
L 224.565958 145.976718 
L 225.19718 140.196458 
L 225.828401 146.605592 
L 226.459623 146.573772 
L 227.090845 143.133584 
L 227.722067 142.632211 
L 228.353288 140.297198 
L 228.98451 146.811157 
L 229.615732 148.644048 
L 230.246953 138.637543 
L 230.878175 152.611331 
L 231.509397 150.648867 
L 232.140619 147.872803 
L 232.77184 150.238278 
L 233.403062 153.067418 
L 234.034284 151.872205 
L 235.296727 145.696861 
L 235.927949 147.420254 
L 236.559171 152.426299 
L 237.190392 152.4238 
L 237.821614 151.17703 
L 238.452836 155.500398 
L 239.084058 156.452738 
L 239.715279 156.230667 
L 240.346501 156.463937 
L 240.977723 157.859625 
L 241.608944 154.358003 
L 242.240166 68.659455 
L 242.871388 150.556502 
L 243.50261 160.206499 
L 244.133831 161.659554 
L 244.765053 161.632284 
L 245.396275 160.758324 
L 246.027496 161.44486 
L 246.658718 161.661621 
L 247.28994 161.760835 
L 247.921162 162.341747 
L 248.552383 161.860356 
L 249.183605 162.481237 
L 250.446049 162.772977 
L 251.07727 162.68808 
L 253.602157 162.824348 
L 264.964148 162.792702 
L 265.59537 162.63125 
L 266.226591 162.159353 
L 266.857813 162.796448 
L 268.120257 162.812171 
L 270.013922 162.827845 
L 277.588582 162.808212 
L 278.219804 162.666174 
L 278.851026 132.632189 
L 279.482248 162.751769 
L 281.375913 162.810093 
L 285.794465 162.800039 
L 287.68813 162.811698 
L 290.844239 162.749216 
L 294.000347 162.837077 
L 295.262791 162.826607 
L 300.312564 162.813505 
L 300.943786 162.646122 
L 302.837451 162.802875 
L 304.731116 162.809529 
L 305.99356 162.834004 
L 306.624782 162.683992 
L 307.887225 162.787134 
L 309.149668 162.737744 
L 309.78089 162.112251 
L 311.043334 162.132879 
L 311.674555 162.371596 
L 312.305777 159.312262 
L 312.936999 14.851532 
L 313.56822 14.612727 
L 314.199442 161.740282 
L 314.830664 153.772715 
L 315.461886 162.846741 
L 332.504872 162.84302 
L 332.504872 162.84302 
" clip-path="url(#p07ac40480f)" style="fill: none; stroke: #ff7f0e; stroke-opacity: 0.25; stroke-width: 1.5; stroke-linecap: square"/>
   </g>
   <g id="line2d_43">
    <path d="M 54.136094 162.854258 
L 64.235641 162.849491 
L 64.866863 162.696285 
L 65.498085 158.920765 
L 66.129306 162.358104 
L 66.760528 162.614686 
L 67.39175 162.717631 
L 68.022972 162.579742 
L 68.654193 162.594182 
L 69.285415 162.477631 
L 69.916637 162.725762 
L 71.17908 162.288615 
L 72.441524 162.413482 
L 73.072745 160.799052 
L 73.703967 159.497768 
L 74.335189 162.571665 
L 74.96641 161.833825 
L 75.597632 162.285442 
L 76.228854 161.520913 
L 76.860076 160.352633 
L 77.491297 162.749914 
L 78.753741 162.556095 
L 79.384963 162.771301 
L 81.909849 162.716437 
L 82.541071 161.716075 
L 83.172293 160.215128 
L 83.803515 162.314576 
L 84.434736 162.43419 
L 85.065958 162.44002 
L 85.69718 162.216439 
L 86.328401 162.569121 
L 88.222067 162.333559 
L 89.48451 160.94269 
L 90.115732 161.941915 
L 90.746953 151.262066 
L 91.378175 150.674845 
L 92.009397 158.408845 
L 92.640619 130.876609 
L 93.903062 108.150083 
L 94.534284 80.125077 
L 95.165506 155.479286 
L 96.427949 145.408742 
L 97.059171 161.928537 
L 97.690392 162.808538 
L 98.321614 161.694263 
L 98.952836 162.749147 
L 100.215279 162.820973 
L 100.846501 144.43015 
L 101.477723 147.487469 
L 102.108944 154.837389 
L 102.740166 160.318646 
L 103.371388 162.60129 
L 104.00261 161.163774 
L 104.633831 162.699563 
L 105.265053 162.605945 
L 105.896275 162.861533 
L 106.527496 162.851341 
L 107.78994 160.801574 
L 108.421162 162.34886 
L 109.052383 162.853935 
L 109.683605 162.864648 
L 110.314827 162.229435 
L 110.946049 162.226392 
L 111.57727 162.557036 
L 112.208492 162.171662 
L 112.839714 160.766291 
L 113.470935 160.882727 
L 114.102157 162.800612 
L 114.733379 162.852855 
L 115.364601 162.781983 
L 115.995822 162.832023 
L 116.627044 161.916096 
L 117.258266 162.609287 
L 119.151931 162.598988 
L 119.783153 162.738365 
L 121.045596 162.790559 
L 121.676818 162.275979 
L 122.308039 162.697816 
L 123.570483 162.647603 
L 124.201705 162.453764 
L 124.832926 162.863752 
L 125.464148 162.844746 
L 126.09537 162.704684 
L 126.726591 162.86384 
L 129.251478 162.76306 
L 129.8827 162.498562 
L 130.513922 162.370633 
L 131.145144 162.534066 
L 131.776365 162.861958 
L 132.407587 162.862413 
L 133.038809 162.507902 
L 133.67003 162.692424 
L 134.932474 162.850469 
L 135.563696 162.755598 
L 136.194917 160.398181 
L 136.826139 162.464491 
L 138.088582 162.814858 
L 138.719804 162.579698 
L 139.351026 162.667323 
L 139.982248 161.507037 
L 140.613469 162.648587 
L 141.244691 162.831611 
L 141.875913 162.632445 
L 142.507134 162.729231 
L 143.138356 162.617148 
L 143.769578 162.735931 
L 145.032021 162.719124 
L 145.663243 162.462159 
L 146.294465 162.734751 
L 146.925687 162.856654 
L 147.556908 162.681743 
L 148.18813 162.711709 
L 148.819352 162.460137 
L 149.450573 162.697807 
L 150.081795 162.61398 
L 151.344239 162.825285 
L 153.237904 162.791005 
L 153.869125 162.538814 
L 154.500347 162.005479 
L 155.131569 162.055009 
L 155.762791 162.262646 
L 156.394012 162.807539 
L 157.025234 162.415024 
L 157.656456 162.388574 
L 158.287677 162.85957 
L 158.918899 162.832834 
L 159.550121 162.52254 
L 160.181343 162.56599 
L 160.812564 162.324556 
L 161.443786 162.266581 
L 163.337451 162.566597 
L 164.599895 160.175709 
L 165.231116 162.430028 
L 165.862338 162.190973 
L 166.49356 162.58334 
L 167.124782 161.167716 
L 167.756003 161.782094 
L 168.387225 162.238058 
L 169.018447 160.702088 
L 169.649668 162.570407 
L 170.912112 162.571846 
L 172.174555 162.484601 
L 173.436999 162.753316 
L 174.06822 162.602692 
L 174.699442 162.738673 
L 175.330664 162.732925 
L 175.961886 162.45902 
L 177.855551 162.690896 
L 186.692655 162.667332 
L 187.955098 162.716843 
L 188.58632 162.654103 
L 189.217542 162.424069 
L 189.848763 162.373396 
L 190.479985 162.700713 
L 191.111207 162.606777 
L 191.742429 162.694963 
L 194.267315 162.592548 
L 194.898537 162.759692 
L 195.529759 162.699225 
L 196.160981 162.34708 
L 196.792202 162.598685 
L 198.054646 162.842828 
L 198.685868 159.244021 
L 199.317089 154.753455 
L 199.948311 161.237234 
L 200.579533 162.673482 
L 201.210754 162.79019 
L 201.841976 162.667982 
L 202.473198 162.357343 
L 203.10442 158.221019 
L 203.735641 162.852771 
L 207.522972 162.865808 
L 208.154193 162.801016 
L 208.785415 161.071733 
L 210.047858 162.61868 
L 210.67908 162.418023 
L 211.310302 162.721618 
L 211.941524 162.65061 
L 213.203967 162.796841 
L 218.253741 162.807685 
L 225.19718 162.813803 
L 227.722067 162.809495 
L 240.346501 162.838993 
L 241.608944 162.778626 
L 242.240166 162.094816 
L 242.871388 162.754279 
L 245.396275 162.830272 
L 262.439261 162.779461 
L 263.070483 162.6336 
L 263.701705 162.820443 
L 264.964148 162.723896 
L 265.59537 162.304821 
L 266.226591 162.656926 
L 267.489035 162.794575 
L 271.907587 162.773798 
L 273.17003 162.794853 
L 278.219804 162.826802 
L 278.851026 159.095196 
L 279.482248 162.832038 
L 293.369125 162.814216 
L 296.525234 162.839196 
L 305.99356 162.824613 
L 306.624782 162.618292 
L 307.256003 162.772188 
L 309.149668 162.827296 
L 309.78089 159.16808 
L 310.412112 153.126977 
L 311.043334 28.985291 
L 311.674555 20.049276 
L 312.305777 20.577336 
L 312.936999 162.764176 
L 313.56822 162.864668 
L 314.199442 16.114287 
L 314.830664 162.841291 
L 326.823877 162.854727 
L 332.504872 162.857585 
L 332.504872 162.857585 
" clip-path="url(#p07ac40480f)" style="fill: none; stroke: #2ca02c; stroke-opacity: 0.25; stroke-width: 1.5; stroke-linecap: square"/>
   </g>
   <g id="line2d_44">
    <path d="M 54.136094 162.847268 
L 64.866863 162.66793 
L 65.498085 160.020166 
L 66.129306 162.13568 
L 66.760528 162.482808 
L 68.654193 162.657314 
L 69.916637 162.58592 
L 70.547858 161.684003 
L 71.17908 162.110096 
L 71.810302 162.400497 
L 72.441524 162.172652 
L 73.072745 157.644229 
L 73.703967 156.324155 
L 74.335189 161.741566 
L 74.96641 162.346782 
L 75.597632 162.202292 
L 76.228854 160.698944 
L 76.860076 160.396219 
L 77.491297 162.696294 
L 78.753741 162.494862 
L 79.384963 162.79444 
L 81.909849 162.747294 
L 82.541071 161.418073 
L 83.172293 149.430837 
L 83.803515 105.841448 
L 84.434736 38.465595 
L 85.065958 78.30797 
L 85.69718 78.830701 
L 86.328401 57.525482 
L 86.959623 83.722917 
L 87.590845 80.541119 
L 88.853288 146.34388 
L 89.48451 134.117248 
L 90.115732 36.687356 
L 90.746953 81.312081 
L 91.378175 69.330082 
L 92.009397 42.416385 
L 92.640619 101.938432 
L 93.27184 146.006919 
L 93.903062 139.305338 
L 94.534284 147.766736 
L 95.165506 51.93483 
L 95.796727 111.857438 
L 96.427949 90.831039 
L 97.059171 32.729357 
L 97.690392 15.455263 
L 98.321614 34.706601 
L 98.952836 16.390283 
L 99.584058 15.110231 
L 100.215279 15.443591 
L 100.846501 53.627045 
L 101.477723 118.821913 
L 102.108944 140.248724 
L 102.740166 40.458708 
L 103.371388 15.894863 
L 104.00261 28.742709 
L 104.633831 17.598954 
L 105.265053 26.406737 
L 105.896275 14.709806 
L 106.527496 14.821985 
L 107.158718 18.290941 
L 107.78994 69.128516 
L 108.421162 48.702683 
L 109.052383 14.855389 
L 109.683605 14.625803 
L 110.314827 137.124277 
L 110.946049 146.635262 
L 111.57727 49.655676 
L 112.208492 106.662334 
L 112.839714 119.778493 
L 113.470935 124.525928 
L 114.102157 18.7146 
L 114.733379 15.34217 
L 115.364601 26.35869 
L 115.995822 16.271605 
L 116.627044 142.675106 
L 117.258266 127.957613 
L 117.889487 131.480005 
L 118.520709 56.590324 
L 119.151931 154.030249 
L 119.783153 31.365439 
L 120.414374 22.597282 
L 121.045596 23.289817 
L 121.676818 150.83445 
L 122.308039 39.207481 
L 122.939261 44.729256 
L 123.570483 23.295613 
L 124.201705 56.377078 
L 124.832926 14.818919 
L 125.464148 16.209445 
L 126.09537 40.923401 
L 126.726591 14.673423 
L 127.357813 14.703664 
L 127.989035 16.076182 
L 128.620257 19.903778 
L 129.251478 27.507163 
L 129.8827 112.101606 
L 130.513922 106.605527 
L 131.145144 104.028176 
L 131.776365 14.695086 
L 132.407587 14.801259 
L 133.038809 129.186653 
L 133.67003 129.879668 
L 134.301252 35.168127 
L 134.932474 16.102598 
L 135.563696 51.449126 
L 136.194917 143.766548 
L 136.826139 152.122143 
L 137.457361 156.929662 
L 138.088582 18.936219 
L 139.351026 161.572542 
L 139.982248 89.773024 
L 140.613469 153.593243 
L 141.244691 21.703442 
L 141.875913 128.336217 
L 142.507134 76.95004 
L 143.138356 147.221864 
L 143.769578 59.5533 
L 144.4008 161.42829 
L 145.032021 66.08736 
L 145.663243 77.745945 
L 146.294465 55.233063 
L 146.925687 15.285558 
L 147.556908 99.052775 
L 148.18813 99.854786 
L 148.819352 22.690951 
L 149.450573 160.745216 
L 150.081795 154.911236 
L 150.713017 34.509791 
L 151.344239 17.521627 
L 151.97546 23.025523 
L 152.606682 15.076433 
L 153.237904 20.215031 
L 153.869125 141.518608 
L 154.500347 118.355378 
L 155.131569 144.012648 
L 155.762791 115.040924 
L 156.394012 17.61139 
L 157.025234 139.781821 
L 157.656456 106.254872 
L 158.287677 14.879006 
L 158.918899 17.376564 
L 159.550121 99.86827 
L 160.181343 84.184924 
L 160.812564 160.507562 
L 161.443786 161.245298 
L 162.075008 162.24357 
L 162.706229 161.536744 
L 163.337451 162.0154 
L 163.968673 161.436307 
L 164.599895 159.133465 
L 165.231116 143.116192 
L 165.862338 158.582488 
L 166.49356 72.962723 
L 167.124782 119.741687 
L 167.756003 141.985767 
L 168.387225 158.662962 
L 169.018447 160.353349 
L 169.649668 155.983221 
L 170.28089 156.957 
L 170.912112 138.013661 
L 171.543334 156.955161 
L 172.174555 160.803414 
L 172.805777 152.316664 
L 173.436999 42.730836 
L 174.06822 158.46268 
L 174.699442 72.402323 
L 175.330664 30.665573 
L 175.961886 47.115541 
L 176.593107 161.746499 
L 177.224329 161.571453 
L 177.855551 158.385852 
L 178.486772 115.314424 
L 179.117994 142.285038 
L 179.749216 161.735336 
L 180.380438 160.468535 
L 181.011659 162.157845 
L 181.642881 162.743307 
L 182.274103 162.609526 
L 182.905325 162.727055 
L 183.536546 162.448891 
L 184.167768 162.814378 
L 184.79899 162.774667 
L 185.430211 162.482173 
L 186.061433 162.503569 
L 186.692655 162.046777 
L 187.323877 162.648267 
L 187.955098 162.479521 
L 188.58632 162.083431 
L 189.217542 161.896331 
L 189.848763 161.057794 
L 190.479985 162.161792 
L 191.111207 162.417157 
L 191.742429 162.431534 
L 192.37365 162.736534 
L 193.004872 162.192294 
L 193.636094 162.775391 
L 194.898537 162.796422 
L 202.473198 162.858941 
L 203.10442 162.801377 
L 204.998085 162.863108 
L 210.047858 162.845219 
L 211.310302 162.621803 
L 213.203967 162.761074 
L 241.608944 162.832307 
L 246.027496 162.853917 
L 278.219804 162.860837 
L 278.851026 162.602694 
L 279.482248 162.861477 
L 309.78089 162.794532 
L 310.412112 162.748425 
L 311.043334 162.438982 
L 311.674555 162.472026 
L 312.936999 162.857645 
L 320.511659 162.862272 
L 332.504872 162.86117 
L 332.504872 162.86117 
" clip-path="url(#p07ac40480f)" style="fill: none; stroke: #d62728; stroke-opacity: 0.25; stroke-width: 1.5; stroke-linecap: square"/>
   </g>
   <g id="line2d_45">
    <path d="M 54.136094 162.865485 
L 64.866863 162.848055 
L 65.498085 162.446415 
L 66.129306 162.827897 
L 69.916637 162.836039 
L 71.17908 162.36276 
L 71.810302 162.372165 
L 72.441524 162.233525 
L 73.072745 158.25379 
L 73.703967 152.827648 
L 74.335189 162.451631 
L 75.597632 162.368281 
L 76.228854 162.297533 
L 76.860076 161.321626 
L 77.491297 162.823867 
L 78.122519 162.805931 
L 78.753741 162.323964 
L 79.384963 162.824412 
L 81.909849 162.831106 
L 82.541071 162.5799 
L 83.172293 155.497764 
L 83.803515 160.472947 
L 84.434736 162.507007 
L 85.69718 162.299393 
L 86.328401 162.588146 
L 86.959623 162.623669 
L 88.222067 162.362123 
L 89.48451 162.453654 
L 90.115732 162.735747 
L 91.378175 161.877494 
L 92.009397 161.996564 
L 92.640619 159.018768 
L 93.27184 161.975272 
L 93.903062 161.316586 
L 94.534284 161.256165 
L 95.165506 161.636561 
L 95.796727 160.124878 
L 96.427949 162.223905 
L 97.059171 162.374698 
L 97.690392 162.660909 
L 98.321614 160.677293 
L 98.952836 162.186861 
L 99.584058 162.772733 
L 100.215279 162.779364 
L 100.846501 159.962528 
L 101.477723 158.179293 
L 102.108944 160.726675 
L 102.740166 160.874143 
L 103.371388 162.764061 
L 104.00261 162.346704 
L 104.633831 162.809192 
L 105.265053 162.674373 
L 105.896275 162.864062 
L 106.527496 162.858816 
L 107.78994 162.334623 
L 108.421162 162.672653 
L 109.052383 162.859701 
L 109.683605 162.865904 
L 111.57727 162.369471 
L 112.208492 161.97754 
L 112.839714 160.610641 
L 113.470935 162.457375 
L 114.102157 162.822744 
L 115.995822 162.842862 
L 116.627044 162.67625 
L 117.258266 162.716764 
L 117.889487 162.430465 
L 118.520709 162.74427 
L 119.151931 162.802277 
L 119.783153 162.003302 
L 120.414374 162.4992 
L 121.045596 162.730916 
L 121.676818 162.64457 
L 122.308039 162.832105 
L 122.939261 162.588732 
L 123.570483 162.738113 
L 124.201705 162.730117 
L 124.832926 162.858051 
L 129.251478 162.742829 
L 129.8827 162.442134 
L 130.513922 162.430704 
L 131.145144 162.190684 
L 131.776365 162.850749 
L 132.407587 162.844787 
L 133.038809 162.666813 
L 134.301252 162.829797 
L 134.932474 162.858911 
L 136.826139 162.461404 
L 137.457361 162.765273 
L 138.088582 162.845248 
L 138.719804 162.626593 
L 139.351026 162.775965 
L 139.982248 152.814204 
L 140.613469 162.517793 
L 141.244691 162.788036 
L 143.769578 162.599383 
L 144.4008 162.692722 
L 145.032021 162.457794 
L 145.663243 161.294855 
L 146.294465 162.622425 
L 146.925687 162.863842 
L 148.819352 162.837353 
L 150.713017 162.804533 
L 151.344239 162.707119 
L 151.97546 162.407047 
L 152.606682 162.809764 
L 153.237904 162.625555 
L 153.869125 162.081179 
L 155.131569 162.126675 
L 155.762791 158.513399 
L 156.394012 161.566937 
L 157.025234 162.544738 
L 158.918899 162.853323 
L 159.550121 162.175034 
L 160.181343 161.797981 
L 160.812564 162.699854 
L 162.075008 162.801158 
L 162.706229 162.527766 
L 163.337451 162.539087 
L 163.968673 162.087248 
L 165.231116 162.773459 
L 166.49356 162.667447 
L 167.124782 161.275491 
L 167.756003 162.692576 
L 169.649668 162.755698 
L 175.330664 162.799364 
L 175.961886 162.378048 
L 176.593107 160.84251 
L 177.224329 162.708522 
L 177.855551 162.807063 
L 178.486772 162.150264 
L 179.117994 162.76005 
L 181.642881 162.8502 
L 183.536546 162.80636 
L 184.79899 162.852016 
L 189.217542 162.780788 
L 189.848763 161.797158 
L 190.479985 162.816446 
L 193.004872 162.779651 
L 194.898537 162.844595 
L 204.998085 162.860826 
L 224.565958 162.847906 
L 249.814827 162.866517 
L 310.412112 162.836283 
L 311.043334 162.703137 
L 312.936999 162.864283 
L 332.504872 162.867019 
L 332.504872 162.867019 
" clip-path="url(#p07ac40480f)" style="fill: none; stroke: #9467bd; stroke-opacity: 0.25; stroke-width: 1.5; stroke-linecap: square"/>
   </g>
   <g id="patch_3">
    <path d="M 54.136094 170.28 
L 54.136094 7.2 
" style="fill: none; stroke: #000000; stroke-width: 0.8; stroke-linejoin: miter; stroke-linecap: square"/>
   </g>
   <g id="patch_4">
    <path d="M 333.136094 170.28 
L 333.136094 7.2 
" style="fill: none; stroke: #000000; stroke-width: 0.8; stroke-linejoin: miter; stroke-linecap: square"/>
   </g>
   <g id="patch_5">
    <path d="M 54.136094 170.28 
L 333.136094 170.28 
" style="fill: none; stroke: #000000; stroke-width: 0.8; stroke-linejoin: miter; stroke-linecap: square"/>
   </g>
   <g id="patch_6">
    <path d="M 54.136094 7.2 
L 333.136094 7.2 
" style="fill: none; stroke: #000000; stroke-width: 0.8; stroke-linejoin: miter; stroke-linecap: square"/>
   </g>
   <g id="legend_1">
    <g id="line2d_46">
     <path d="M 343.036094 55.633438 
L 354.036094 55.633438 
L 365.036094 55.633438 
" style="fill: none; stroke: #1f77b4; stroke-width: 1.5; stroke-linecap: square"/>
    </g>
    <g id="text_18">
     <!-- Good -->
     <g transform="translate(373.836094 59.483438)scale(0.11 -0.11)">
      <defs>
       <path id="DejaVuSans-47" d="M 3809 666 
L 3809 1919 
L 2778 1919 
L 2778 2438 
L 4434 2438 
L 4434 434 
Q 4069 175 3628 42 
Q 3188 -91 2688 -91 
Q 1594 -91 976 548 
Q 359 1188 359 2328 
Q 359 3472 976 4111 
Q 1594 4750 2688 4750 
Q 3144 4750 3555 4637 
Q 3966 4525 4313 4306 
L 4313 3634 
Q 3963 3931 3569 4081 
Q 3175 4231 2741 4231 
Q 1884 4231 1454 3753 
Q 1025 3275 1025 2328 
Q 1025 1384 1454 906 
Q 1884 428 2741 428 
Q 3075 428 3337 486 
Q 3600 544 3809 666 
z
" transform="scale(0.015625)"/>
       <path id="DejaVuSans-6f" d="M 1959 3097 
Q 1497 3097 1228 2736 
Q 959 2375 959 1747 
Q 959 1119 1226 758 
Q 1494 397 1959 397 
Q 2419 397 2687 759 
Q 2956 1122 2956 1747 
Q 2956 2369 2687 2733 
Q 2419 3097 1959 3097 
z
M 1959 3584 
Q 2709 3584 3137 3096 
Q 3566 2609 3566 1747 
Q 3566 888 3137 398 
Q 2709 -91 1959 -91 
Q 1206 -91 779 398 
Q 353 888 353 1747 
Q 353 2609 779 3096 
Q 1206 3584 1959 3584 
z
" transform="scale(0.015625)"/>
       <path id="DejaVuSans-64" d="M 2906 2969 
L 2906 4863 
L 3481 4863 
L 3481 0 
L 2906 0 
L 2906 525 
Q 2725 213 2448 61 
Q 2172 -91 1784 -91 
Q 1150 -91 751 415 
Q 353 922 353 1747 
Q 353 2572 751 3078 
Q 1150 3584 1784 3584 
Q 2172 3584 2448 3432 
Q 2725 3281 2906 2969 
z
M 947 1747 
Q 947 1113 1208 752 
Q 1469 391 1925 391 
Q 2381 391 2643 752 
Q 2906 1113 2906 1747 
Q 2906 2381 2643 2742 
Q 2381 3103 1925 3103 
Q 1469 3103 1208 2742 
Q 947 2381 947 1747 
z
" transform="scale(0.015625)"/>
      </defs>
      <use xlink:href="#DejaVuSans-47"/>
      <use xlink:href="#DejaVuSans-6f" x="77.490234"/>
      <use xlink:href="#DejaVuSans-6f" x="138.671875"/>
      <use xlink:href="#DejaVuSans-64" x="199.853516"/>
     </g>
    </g>
    <g id="line2d_47">
     <path d="M 343.036094 71.779375 
L 354.036094 71.779375 
L 365.036094 71.779375 
" style="fill: none; stroke: #ff7f0e; stroke-opacity: 0.25; stroke-width: 1.5; stroke-linecap: square"/>
    </g>
    <g id="text_19">
     <!-- Clog -->
     <g transform="translate(373.836094 75.629375)scale(0.11 -0.11)">
      <defs>
       <path id="DejaVuSans-43" d="M 4122 4306 
L 4122 3641 
Q 3803 3938 3442 4084 
Q 3081 4231 2675 4231 
Q 1875 4231 1450 3742 
Q 1025 3253 1025 2328 
Q 1025 1406 1450 917 
Q 1875 428 2675 428 
Q 3081 428 3442 575 
Q 3803 722 4122 1019 
L 4122 359 
Q 3791 134 3420 21 
Q 3050 -91 2638 -91 
Q 1578 -91 968 557 
Q 359 1206 359 2328 
Q 359 3453 968 4101 
Q 1578 4750 2638 4750 
Q 3056 4750 3426 4639 
Q 3797 4528 4122 4306 
z
" transform="scale(0.015625)"/>
       <path id="DejaVuSans-6c" d="M 603 4863 
L 1178 4863 
L 1178 0 
L 603 0 
L 603 4863 
z
" transform="scale(0.015625)"/>
       <path id="DejaVuSans-67" d="M 2906 1791 
Q 2906 2416 2648 2759 
Q 2391 3103 1925 3103 
Q 1463 3103 1205 2759 
Q 947 2416 947 1791 
Q 947 1169 1205 825 
Q 1463 481 1925 481 
Q 2391 481 2648 825 
Q 2906 1169 2906 1791 
z
M 3481 434 
Q 3481 -459 3084 -895 
Q 2688 -1331 1869 -1331 
Q 1566 -1331 1297 -1286 
Q 1028 -1241 775 -1147 
L 775 -588 
Q 1028 -725 1275 -790 
Q 1522 -856 1778 -856 
Q 2344 -856 2625 -561 
Q 2906 -266 2906 331 
L 2906 616 
Q 2728 306 2450 153 
Q 2172 0 1784 0 
Q 1141 0 747 490 
Q 353 981 353 1791 
Q 353 2603 747 3093 
Q 1141 3584 1784 3584 
Q 2172 3584 2450 3431 
Q 2728 3278 2906 2969 
L 2906 3500 
L 3481 3500 
L 3481 434 
z
" transform="scale(0.015625)"/>
      </defs>
      <use xlink:href="#DejaVuSans-43"/>
      <use xlink:href="#DejaVuSans-6c" x="69.824219"/>
      <use xlink:href="#DejaVuSans-6f" x="97.607422"/>
      <use xlink:href="#DejaVuSans-67" x="158.789062"/>
     </g>
    </g>
    <g id="line2d_48">
     <path d="M 343.036094 87.925313 
L 354.036094 87.925313 
L 365.036094 87.925313 
" style="fill: none; stroke: #2ca02c; stroke-opacity: 0.25; stroke-width: 1.5; stroke-linecap: square"/>
    </g>
    <g id="text_20">
     <!-- Void -->
     <g transform="translate(373.836094 91.775313)scale(0.11 -0.11)">
      <defs>
       <path id="DejaVuSans-56" d="M 1831 0 
L 50 4666 
L 709 4666 
L 2188 738 
L 3669 4666 
L 4325 4666 
L 2547 0 
L 1831 0 
z
" transform="scale(0.015625)"/>
       <path id="DejaVuSans-69" d="M 603 3500 
L 1178 3500 
L 1178 0 
L 603 0 
L 603 3500 
z
M 603 4863 
L 1178 4863 
L 1178 4134 
L 603 4134 
L 603 4863 
z
" transform="scale(0.015625)"/>
      </defs>
      <use xlink:href="#DejaVuSans-56"/>
      <use xlink:href="#DejaVuSans-6f" x="60.658203"/>
      <use xlink:href="#DejaVuSans-69" x="121.839844"/>
      <use xlink:href="#DejaVuSans-64" x="149.623047"/>
     </g>
    </g>
    <g id="line2d_49">
     <path d="M 343.036094 104.07125 
L 354.036094 104.07125 
L 365.036094 104.07125 
" style="fill: none; stroke: #d62728; stroke-opacity: 0.25; stroke-width: 1.5; stroke-linecap: square"/>
    </g>
    <g id="text_21">
     <!-- Ellipticity -->
     <g transform="translate(373.836094 107.92125)scale(0.11 -0.11)">
      <defs>
       <path id="DejaVuSans-45" d="M 628 4666 
L 3578 4666 
L 3578 4134 
L 1259 4134 
L 1259 2753 
L 3481 2753 
L 3481 2222 
L 1259 2222 
L 1259 531 
L 3634 531 
L 3634 0 
L 628 0 
L 628 4666 
z
" transform="scale(0.015625)"/>
       <path id="DejaVuSans-70" d="M 1159 525 
L 1159 -1331 
L 581 -1331 
L 581 3500 
L 1159 3500 
L 1159 2969 
Q 1341 3281 1617 3432 
Q 1894 3584 2278 3584 
Q 2916 3584 3314 3078 
Q 3713 2572 3713 1747 
Q 3713 922 3314 415 
Q 2916 -91 2278 -91 
Q 1894 -91 1617 61 
Q 1341 213 1159 525 
z
M 3116 1747 
Q 3116 2381 2855 2742 
Q 2594 3103 2138 3103 
Q 1681 3103 1420 2742 
Q 1159 2381 1159 1747 
Q 1159 1113 1420 752 
Q 1681 391 2138 391 
Q 2594 391 2855 752 
Q 3116 1113 3116 1747 
z
" transform="scale(0.015625)"/>
       <path id="DejaVuSans-74" d="M 1172 4494 
L 1172 3500 
L 2356 3500 
L 2356 3053 
L 1172 3053 
L 1172 1153 
Q 1172 725 1289 603 
Q 1406 481 1766 481 
L 2356 481 
L 2356 0 
L 1766 0 
Q 1100 0 847 248 
Q 594 497 594 1153 
L 594 3053 
L 172 3053 
L 172 3500 
L 594 3500 
L 594 4494 
L 1172 4494 
z
" transform="scale(0.015625)"/>
       <path id="DejaVuSans-63" d="M 3122 3366 
L 3122 2828 
Q 2878 2963 2633 3030 
Q 2388 3097 2138 3097 
Q 1578 3097 1268 2742 
Q 959 2388 959 1747 
Q 959 1106 1268 751 
Q 1578 397 2138 397 
Q 2388 397 2633 464 
Q 2878 531 3122 666 
L 3122 134 
Q 2881 22 2623 -34 
Q 2366 -91 2075 -91 
Q 1284 -91 818 406 
Q 353 903 353 1747 
Q 353 2603 823 3093 
Q 1294 3584 2113 3584 
Q 2378 3584 2631 3529 
Q 2884 3475 3122 3366 
z
" transform="scale(0.015625)"/>
       <path id="DejaVuSans-79" d="M 2059 -325 
Q 1816 -950 1584 -1140 
Q 1353 -1331 966 -1331 
L 506 -1331 
L 506 -850 
L 844 -850 
Q 1081 -850 1212 -737 
Q 1344 -625 1503 -206 
L 1606 56 
L 191 3500 
L 800 3500 
L 1894 763 
L 2988 3500 
L 3597 3500 
L 2059 -325 
z
" transform="scale(0.015625)"/>
      </defs>
      <use xlink:href="#DejaVuSans-45"/>
      <use xlink:href="#DejaVuSans-6c" x="63.183594"/>
      <use xlink:href="#DejaVuSans-6c" x="90.966797"/>
      <use xlink:href="#DejaVuSans-69" x="118.75"/>
      <use xlink:href="#DejaVuSans-70" x="146.533203"/>
      <use xlink:href="#DejaVuSans-74" x="210.009766"/>
      <use xlink:href="#DejaVuSans-69" x="249.21875"/>
      <use xlink:href="#DejaVuSans-63" x="277.001953"/>
      <use xlink:href="#DejaVuSans-69" x="331.982422"/>
      <use xlink:href="#DejaVuSans-74" x="359.765625"/>
      <use xlink:href="#DejaVuSans-79" x="398.974609"/>
     </g>
    </g>
    <g id="line2d_50">
     <path d="M 343.036094 120.217188 
L 354.036094 120.217188 
L 365.036094 120.217188 
" style="fill: none; stroke: #9467bd; stroke-opacity: 0.25; stroke-width: 1.5; stroke-linecap: square"/>
    </g>
    <g id="text_22">
     <!-- Concentricity -->
     <g transform="translate(373.836094 124.067188)scale(0.11 -0.11)">
      <defs>
       <path id="DejaVuSans-6e" d="M 3513 2113 
L 3513 0 
L 2938 0 
L 2938 2094 
Q 2938 2591 2744 2837 
Q 2550 3084 2163 3084 
Q 1697 3084 1428 2787 
Q 1159 2491 1159 1978 
L 1159 0 
L 581 0 
L 581 3500 
L 1159 3500 
L 1159 2956 
Q 1366 3272 1645 3428 
Q 1925 3584 2291 3584 
Q 2894 3584 3203 3211 
Q 3513 2838 3513 2113 
z
" transform="scale(0.015625)"/>
       <path id="DejaVuSans-65" d="M 3597 1894 
L 3597 1613 
L 953 1613 
Q 991 1019 1311 708 
Q 1631 397 2203 397 
Q 2534 397 2845 478 
Q 3156 559 3463 722 
L 3463 178 
Q 3153 47 2828 -22 
Q 2503 -91 2169 -91 
Q 1331 -91 842 396 
Q 353 884 353 1716 
Q 353 2575 817 3079 
Q 1281 3584 2069 3584 
Q 2775 3584 3186 3129 
Q 3597 2675 3597 1894 
z
M 3022 2063 
Q 3016 2534 2758 2815 
Q 2500 3097 2075 3097 
Q 1594 3097 1305 2825 
Q 1016 2553 972 2059 
L 3022 2063 
z
" transform="scale(0.015625)"/>
       <path id="DejaVuSans-72" d="M 2631 2963 
Q 2534 3019 2420 3045 
Q 2306 3072 2169 3072 
Q 1681 3072 1420 2755 
Q 1159 2438 1159 1844 
L 1159 0 
L 581 0 
L 581 3500 
L 1159 3500 
L 1159 2956 
Q 1341 3275 1631 3429 
Q 1922 3584 2338 3584 
Q 2397 3584 2469 3576 
Q 2541 3569 2628 3553 
L 2631 2963 
z
" transform="scale(0.015625)"/>
      </defs>
      <use xlink:href="#DejaVuSans-43"/>
      <use xlink:href="#DejaVuSans-6f" x="69.824219"/>
      <use xlink:href="#DejaVuSans-6e" x="131.005859"/>
      <use xlink:href="#DejaVuSans-63" x="194.384766"/>
      <use xlink:href="#DejaVuSans-65" x="249.365234"/>
      <use xlink:href="#DejaVuSans-6e" x="310.888672"/>
      <use xlink:href="#DejaVuSans-74" x="374.267578"/>
      <use xlink:href="#DejaVuSans-72" x="413.476562"/>
      <use xlink:href="#DejaVuSans-69" x="454.589844"/>
      <use xlink:href="#DejaVuSans-63" x="482.373047"/>
      <use xlink:href="#DejaVuSans-69" x="537.353516"/>
      <use xlink:href="#DejaVuSans-74" x="565.136719"/>
      <use xlink:href="#DejaVuSans-79" x="604.345703"/>
     </g>
    </g>
   </g>
  </g>
 </g>
 <defs>
  <clipPath id="p07ac40480f">
   <rect x="54.136094" y="7.2" width="279" height="163.08"/>
  </clipPath>
 </defs>
</svg>
